<?xml version="1.0" standalone="no"?>
<!DOCTYPE svg PUBLIC "-//W3C//DTD SVG 20010904//EN"
 "http://www.w3.org/TR/2001/REC-SVG-20010904/DTD/svg10.dtd">
<svg version="1.0" xmlns="http://www.w3.org/2000/svg"
 width="512.000000pt" height="512.000000pt" viewBox="0 0 512.000000 512.000000"
 preserveAspectRatio="xMidYMid meet">

<g transform="translate(0.000000,512.000000) scale(0.100000,-0.100000)"
fill="#000000" stroke="none">
<path d="M2413 5079 c-34 -10 -83 -34 -110 -52 -26 -18 -549 -450 -1161 -960
-855 -713 -1117 -936 -1128 -962 -51 -122 50 -245 182 -221 28 6 267 200 1145
932 611 509 1125 934 1142 944 48 29 113 26 165 -7 23 -16 445 -363 936 -773
l895 -745 -2 -1407 c-2 -1403 -2 -1407 -23 -1434 -11 -15 -33 -37 -48 -48 -27
-20 -41 -21 -457 -24 l-429 -3 0 909 c0 783 -2 916 -15 967 -45 172 -179 305
-352 350 -85 22 -1101 22 -1186 0 -173 -45 -307 -178 -352 -350 -13 -51 -15
-184 -15 -967 l0 -909 -429 3 c-416 3 -430 4 -457 24 -15 11 -37 33 -48 48
-21 27 -21 37 -26 1046 -5 1009 -5 1019 -26 1046 -39 53 -71 69 -134 69 -63 0
-95 -16 -134 -69 -21 -27 -21 -35 -24 -1039 -2 -701 1 -1028 9 -1065 26 -129
131 -267 247 -326 117 -59 2 -56 1982 -56 1999 0 1868 -4 1991 61 70 38 157
126 193 197 58 115 56 54 56 1435 l0 1270 33 -27 c51 -42 96 -59 145 -53 75 8
131 64 139 139 10 87 9 88 -450 470 l-425 353 -4 307 c-3 291 -4 308 -24 334
-39 53 -71 69 -134 69 -63 0 -95 -16 -134 -69 -19 -24 -22 -46 -26 -197 l-5
-170 -530 442 c-291 243 -550 455 -575 471 -106 67 -271 87 -397 47z m713
-2865 c15 -11 37 -33 48 -48 21 -27 21 -36 24 -937 l2 -909 -640 0 -640 0 0
894 c0 610 3 904 11 923 6 15 20 39 32 52 47 51 44 51 609 48 514 -2 527 -2
554 -23z"/>
<path d="M2335 1426 c-101 -44 -125 -178 -46 -257 65 -65 157 -65 222 0 124
124 -15 327 -176 257z"/>
</g>
</svg>
