<?xml version="1.0" standalone="no"?>
<!DOCTYPE svg PUBLIC "-//W3C//DTD SVG 20010904//EN"
 "http://www.w3.org/TR/2001/REC-SVG-20010904/DTD/svg10.dtd">
<svg version="1.0" xmlns="http://www.w3.org/2000/svg"
 width="512.000000pt" height="512.000000pt" viewBox="0 0 512.000000 512.000000"
 preserveAspectRatio="xMidYMid meet">

<g transform="translate(0.000000,512.000000) scale(0.100000,-0.100000)"
fill="#000000" stroke="none">
<path d="M441 5100 c-205 -54 -368 -218 -421 -425 -20 -77 -20 -112 -20 -2115
0 -2006 0 -2038 20 -2115 37 -144 120 -260 246 -344 231 -155 537 -126 734 68
73 72 110 129 149 230 l26 66 5 909 5 909 32 -50 c17 -27 56 -71 85 -99 41
-38 2051 -1355 2857 -1871 145 -93 234 -123 364 -123 175 0 299 50 418 169 78
78 118 142 155 251 18 53 19 119 19 2000 0 1881 -1 1947 -19 2000 -49 143
-136 258 -250 332 -157 101 -382 118 -557 41 -79 -35 -2930 -1893 -2987 -1947
-29 -28 -68 -72 -85 -99 l-32 -50 -5 909 -5 909 -26 66 c-39 101 -76 158 -148
229 -148 146 -359 202 -560 150z"/>
</g>
</svg>
