<?xml version="1.0" standalone="no"?>
<!DOCTYPE svg PUBLIC "-//W3C//DTD SVG 20010904//EN"
 "http://www.w3.org/TR/2001/REC-SVG-20010904/DTD/svg10.dtd">
<svg version="1.0" xmlns="http://www.w3.org/2000/svg"
 width="512.000000pt" height="512.000000pt" viewBox="0 0 512.000000 512.000000"
 preserveAspectRatio="xMidYMid meet">

<g transform="translate(0.000000,512.000000) scale(0.100000,-0.100000)"
fill="#000000" stroke="none">
<path d="M1184 4436 c-22 -7 -55 -21 -73 -32 -37 -22 -644 -774 -661 -820 -23
-61 -11 -80 299 -468 164 -205 312 -385 327 -401 98 -94 278 -89 362 10 58 69
77 165 49 245 -7 19 -55 97 -106 173 -50 76 -95 144 -98 152 -4 13 114 15 908
15 937 0 1064 -4 1203 -40 175 -45 353 -147 486 -280 365 -365 420 -931 133
-1362 -62 -93 -198 -229 -291 -291 -141 -94 -307 -155 -477 -176 -49 -6 -227
-11 -395 -11 -285 0 -308 -2 -350 -21 -60 -27 -88 -54 -116 -114 -56 -119 -9
-254 110 -318 39 -21 55 -22 341 -25 416 -5 570 12 785 85 459 155 823 520
975 977 134 403 105 810 -85 1191 -223 447 -632 749 -1140 841 -85 16 -203 18
-1093 21 -549 3 -997 7 -995 11 2 4 46 70 97 147 52 77 101 156 108 175 46
128 -29 276 -161 315 -59 18 -87 18 -142 1z"/>
</g>
</svg>
