<?xml version="1.0" standalone="no"?>
<!DOCTYPE svg PUBLIC "-//W3C//DTD SVG 20010904//EN"
 "http://www.w3.org/TR/2001/REC-SVG-20010904/DTD/svg10.dtd">
<svg version="1.0" xmlns="http://www.w3.org/2000/svg"
 width="512.000000pt" height="512.000000pt" viewBox="0 0 512.000000 512.000000"
 preserveAspectRatio="xMidYMid meet">

<g transform="translate(0.000000,512.000000) scale(0.100000,-0.100000)"
fill="#000000" stroke="none">
<path d="M4382 5100 c-103 -27 -186 -75 -263 -150 -72 -71 -109 -128 -148
-229 l-26 -66 -5 -910 c-5 -866 -6 -908 -22 -879 -35 64 -125 148 -238 223
-402 269 -2807 1825 -2847 1843 -79 35 -143 48 -238 48 -172 0 -297 -51 -416
-169 -78 -78 -118 -142 -155 -251 -18 -53 -19 -119 -19 -2000 l0 -1945 23 -66
c87 -252 302 -409 560 -409 105 0 170 14 254 53 42 19 2598 1675 2884 1867 73
50 162 140 192 194 16 29 17 -13 22 -879 l5 -910 26 -66 c38 -98 75 -157 143
-225 200 -200 510 -229 744 -71 86 59 158 141 203 232 63 128 60 3 57 2258
l-3 2052 -23 67 c-29 86 -109 205 -175 261 -152 129 -348 176 -535 127z"/>
</g>
</svg>
