<?xml version="1.0" standalone="no"?>
<!DOCTYPE svg PUBLIC "-//W3C//DTD SVG 20010904//EN"
 "http://www.w3.org/TR/2001/REC-SVG-20010904/DTD/svg10.dtd">
<svg version="1.0" xmlns="http://www.w3.org/2000/svg"
 width="512.000000pt" height="512.000000pt" viewBox="0 0 512.000000 512.000000"
 preserveAspectRatio="xMidYMid meet">

<g transform="translate(0.000000,512.000000) scale(0.100000,-0.100000)"
fill="#ff7f50" stroke="none">
<path d="M2556 5067 c-3 -28 -10 -142 -17 -252 -6 -110 -12 -201 -13 -202 -1
-1 -64 60 -140 136 l-139 139 -396 -354 -396 -353 -442 -1 -443 0 0 -360 0
-360 159 0 158 0 6 -47 c3 -27 60 -680 127 -1453 66 -773 127 -1441 135 -1485
37 -204 173 -362 383 -444 l67 -26 915 -3 c640 -2 935 0 980 8 240 41 448 261
474 500 3 30 62 696 131 1480 69 784 128 1435 131 1448 4 22 7 22 159 22 l155
0 0 360 0 360 -368 0 -368 0 -138 433 c-76 237 -141 435 -145 439 -4 4 -75
-53 -158 -127 -83 -74 -157 -135 -163 -135 -10 0 -131 61 -507 256 l-142 74
-5 -53z m329 -269 c105 -53 196 -101 203 -106 9 -6 -35 -51 -159 -162 l-171
-153 -50 50 -50 51 11 176 c6 97 11 192 11 212 0 20 3 34 8 32 4 -2 93 -47
197 -100z m681 -292 c53 -165 98 -306 101 -313 4 -11 -62 -13 -354 -13 l-359
0 -49 50 c-43 43 -47 52 -35 64 136 126 595 526 597 520 1 -5 46 -144 99 -308z
m-1075 -324 c-148 -1 -395 -1 -547 0 l-278 3 289 258 289 258 258 -258 258
-258 -269 -3z m-1201 -729 c0 -4 -19 -26 -42 -50 l-42 -43 -23 22 c-13 13 -23
33 -23 50 0 28 0 28 65 28 36 0 65 -3 65 -7z m1085 -63 l70 -70 -300 -300
-300 -300 -260 260 -260 260 110 110 110 110 380 0 381 0 69 -70z m1329 -40
l111 -110 -260 -260 -260 -260 -297 297 c-164 164 -298 300 -298 303 0 3 28
36 63 73 l62 67 384 0 384 0 111 -110z m258 70 c-7 -62 -20 -66 -69 -18 -23
23 -43 46 -43 51 0 4 26 7 58 5 l57 -3 -3 -35z m-1089 -528 l297 -297 -300
-300 -300 -300 -302 303 -303 302 295 295 c162 162 299 295 305 295 6 0 144
-134 308 -298z m-1410 -40 l257 -257 -225 -225 c-186 -186 -225 -221 -225
-200 0 14 -18 230 -40 480 -22 250 -40 456 -40 458 0 14 52 -34 273 -256z
m2430 -209 c-23 -258 -42 -470 -42 -473 -1 -3 -98 92 -216 210 l-214 214 252
257 c139 141 254 258 257 258 3 1 -13 -209 -37 -466z m-1748 -473 l300 -300
-233 -232 -232 -233 -302 302 -303 303 230 230 c126 126 232 230 235 230 3 0
140 -135 305 -300z m1383 67 l232 -232 -300 -300 -300 -300 -230 230 c-126
126 -230 234 -230 240 0 10 580 595 590 595 3 0 110 -105 238 -233z m-1900
-720 l232 -232 -190 -190 c-104 -104 -190 -186 -190 -182 0 7 -85 747 -93 810
-2 15 -1 27 2 27 4 0 111 -105 239 -233z m1175 -469 l-233 -233 -230 230
c-126 126 -230 234 -230 240 0 5 102 112 227 237 l228 228 235 -235 235 -235
-232 -232z m902 277 c-25 -215 -45 -397 -45 -405 0 -8 -86 71 -190 175 l-190
190 232 233 c167 166 234 227 236 214 1 -9 -18 -193 -43 -407z m-1493 -392
c126 -125 228 -232 228 -238 0 -5 -75 -85 -167 -177 l-168 -168 -50 0 -50 0
-210 210 -210 210 195 195 c107 107 197 195 200 195 3 0 107 -102 232 -227z
m1131 -375 l-208 -208 -50 0 -50 0 -172 172 -173 173 232 232 233 233 197
-197 198 -198 -207 -207z m-1693 -104 l185 -186 -95 4 c-68 3 -108 10 -141 25
-98 44 -171 141 -185 246 -6 41 -4 51 16 72 13 14 26 25 29 25 4 0 89 -84 191
-186z m2045 166 c38 -42 -4 -182 -77 -257 -58 -59 -124 -85 -228 -91 l-85 -4
180 185 c99 101 183 185 186 186 3 0 14 -8 24 -19z m-1018 -152 c57 -57 103
-106 103 -110 0 -5 -94 -8 -210 -8 -115 0 -210 3 -210 7 0 8 202 213 210 213
2 0 51 -46 107 -102z"/>
</g>
</svg>
